Coordinates
version=1
nRows=23
nColumns=33
inDegrees=yes

Units are S.I. units (second, meters, Newtons, ...)
Angles are in degrees.

endheader
time	ground_thorax_rot_x	ground_thorax_rot_y	ground_thorax_rot_z	ground_thorax_tx	ground_thorax_ty	ground_thorax_tz	clav_prot_r	clav_elev_r	scapula_abduction_r	scapula_elevation_r	scapula_upward_rot_r	scapula_winging_r	shoulder_elv_r	plane_of_elev_r	axial_rot_r	elbow_flexion_r	pro_sup_r	wrist_flex_r	wrist_dev_r	clav_prot_l	clav_elev_l	scapula_abduction_l	scapula_elevation_l	scapula_upward_rot_l	scapula_winging_l	shoulder_elv_l	plane_of_elev_l	axial_rot_l	elbow_flexion_l	pro_sup_l	wrist_flex_l	wrist_dev_l	
5.3500	37.662572	1.566628	2.560000	-11.360437	808.446980	3.957610	-7.497747	35.993271	45.000000	38.638844	45.125519	-3355.160773	56.995540	16.116032	-180.000000	1446.929534	-97.459660	14.707553	11.542806	6.408665	-45.000000	-45.000000	45.000000	-16.361768	2601.034966	-3890.270798	20.832939	-40.433226	366.748030	28.282853	9.872504	-19.105988	
5.3600	37.633718	1.613653	2.554559	-10.284812	807.510532	4.073245	-7.432896	35.660722	45.000000	38.277765	44.936221	-3354.849861	57.091669	16.017788	-180.000000	1446.822919	-96.839789	14.551165	11.433444	6.412169	-45.000000	-45.000000	45.000000	-16.445208	2600.906271	-3890.287082	20.854650	-40.516175	366.764806	28.789010	9.850347	-19.212806	
5.3700	37.597004	1.686672	2.623214	-9.344153	806.601983	4.159117	-7.233831	35.451585	45.000000	37.878029	44.465436	-3354.435977	57.135939	15.975424	-180.000000	1446.700259	-96.169123	14.531247	11.354007	6.446520	-45.000000	-45.000000	45.000000	-16.587486	2600.876779	-3890.347248	20.920915	-40.631976	366.754760	29.280215	9.834885	-19.297739	
5.3800	37.569843	1.719378	2.645894	-8.706407	805.770599	4.173273	-7.169895	35.254712	45.000000	37.559259	44.188278	-3354.148200	57.190009	15.914586	-180.000000	1446.592926	-95.322220	14.419866	11.246913	6.430931	-45.000000	-45.000000	45.000000	-16.635063	2600.830007	-3890.388447	20.915431	-40.662552	366.754721	29.732881	9.825007	-19.395537	
5.3900	37.545067	1.742474	2.668501	-8.384663	805.004013	4.121709	-7.117134	35.100561	45.000000	37.283266	43.929598	-3353.919860	57.242273	15.872308	-180.000000	1446.489316	-94.327006	14.337745	11.147924	6.405863	-45.000000	-45.000000	45.000000	-16.665580	2600.822245	-3890.429842	20.896209	-40.665822	366.745259	30.133882	9.823395	-19.488806	
5.4000	37.530274	1.757915	2.694443	-8.415599	804.297246	4.006419	-7.084590	35.014199	45.000000	37.060874	43.637284	-3353.744561	57.268745	15.853590	-180.000000	1446.371276	-93.182867	14.272655	11.050661	6.378068	-45.000000	-44.999999	45.000000	-16.695224	2600.850683	-3890.473831	20.862631	-40.656572	366.728779	30.466558	9.832366	-19.577173	
5.4100	37.516885	1.782626	2.740379	-8.796774	803.631717	3.842807	-7.019701	34.954002	45.000000	36.871366	43.314296	-3353.614139	57.305358	15.860590	-180.000000	1446.251560	-91.924988	14.276360	10.978288	6.365363	-45.000000	-44.999999	45.000000	-16.761531	2600.928838	-3890.513100	20.834444	-40.665756	366.702582	30.717038	9.846702	-19.654359	
5.4200	37.517632	1.812657	2.804092	-9.510188	802.985954	3.651186	-6.934863	34.955352	45.000000	36.724440	42.889339	-3353.502240	57.316083	15.896492	-180.000000	1446.112396	-90.593055	14.307135	10.917037	6.377842	-45.000000	-44.999997	45.000000	-16.880232	2601.044880	-3890.553452	20.812888	-40.720219	366.671345	30.880027	9.867649	-19.720378	
5.4300	37.525551	1.856025	2.890545	-10.542006	802.344717	3.449270	-6.819424	34.956345	45.000000	36.608571	42.447416	-3353.419500	57.358729	15.940053	-180.000000	1445.975533	-89.215093	14.376777	10.878064	6.413463	-45.000000	-44.999995	45.000000	-17.059996	2601.190207	-3890.580004	20.788612	-40.821223	366.643235	30.955402	9.885431	-19.775489	
5.4400	37.544996	1.903582	2.996133	-11.880884	801.697947	3.250631	-6.707097	34.995478	45.000000	36.529240	41.956642	-3353.357089	57.404932	15.993864	-180.000000	1445.840072	-87.825675	14.438442	10.843702	6.467256	-45.000000	-44.999992	45.000000	-17.278047	2601.360623	-3890.604220	20.750833	-40.966017	366.618303	30.954927	9.899108	-19.820528	
5.4500	37.562109	1.955739	3.122851	-13.517296	801.040081	3.063652	-6.565630	35.035892	45.000000	36.464836	41.471873	-3353.311266	57.498724	16.045352	-180.000000	1445.727332	-86.464239	14.539915	10.834112	6.535323	-45.000000	-44.999985	45.000000	-17.537814	2601.564867	-3890.613415	20.706941	-41.151812	366.596853	30.895148	9.899889	-19.850658	
5.4600	37.581815	1.999414	3.255894	-15.442460	800.368675	2.891083	-6.434194	35.113246	45.000000	36.430667	40.969262	-3353.293492	57.598430	16.100012	-180.000000	1445.629014	-85.166740	14.624237	10.826676	6.614927	-45.000000	-44.999974	45.000000	-17.808739	2601.799003	-3890.618536	20.653016	-41.366804	366.576855	30.796295	9.892514	-19.869472	
5.4700	37.600101	2.035637	3.395123	-17.648105	799.683763	2.730835	-6.277525	35.199471	45.000000	36.406157	40.446597	-3353.268771	57.729844	16.144730	-180.000000	1445.540925	-83.952171	14.728365	10.834674	6.705583	-45.000000	-44.999953	45.000000	-18.119728	2602.056543	-3890.602319	20.595682	-41.608886	366.567061	30.675667	9.874897	-19.877495	
5.4800	37.620345	2.084436	3.564644	-20.126208	798.987171	2.577201	-6.105180	35.320528	45.000000	36.394649	39.829313	-3353.237290	57.865397	16.192907	-180.000000	1445.455343	-82.823609	14.811495	10.837494	6.822640	-45.000000	-44.999917	45.000000	-18.476614	2602.339492	-3890.582261	20.528107	-41.869412	366.560996	30.544603	9.854491	-19.878668	
5.4900	37.640674	2.151016	3.770287	-22.869708	798.282097	2.422892	-5.888606	35.458297	45.000000	36.383670	39.092858	-3353.164283	58.018753	16.233454	-180.000000	1445.363215	-81.776454	14.896846	10.841755	6.964175	-45.000000	-44.999851	45.000000	-18.900706	2602.641952	-3890.549172	20.449375	-42.148772	366.563054	30.408460	9.830996	-19.872701	
5.5000	37.651485	2.280279	4.080702	-25.872194	797.572858	2.260746	-5.600570	35.641463	45.000000	36.361201	38.088328	-3353.038006	58.158552	16.293424	-180.000000	1445.258147	-80.775614	14.969677	10.828855	7.171454	-45.000000	-44.999732	45.000000	-19.443503	2602.991815	-3890.519619	20.357663	-42.439281	366.561668	30.257069	9.805082	-19.855804	
5.5100	37.654673	2.434874	4.443400	-29.128168	796.864677	2.085322	-5.260686	35.841144	45.000000	36.328660	36.920058	-3352.856677	58.302542	16.349219	-180.000000	1445.140226	-79.832744	15.042955	10.809696	7.400090	-45.000000	-44.999521	45.000000	-20.056705	2603.369344	-3890.479244	20.245361	-42.764947	366.565542	30.092717	9.779593	-19.832647	
5.5200	37.642472	2.645214	4.899171	-32.631905	796.163364	1.893121	-4.859327	36.061629	45.000000	36.284776	35.553456	-3352.659076	58.442648	16.427870	-180.000000	1445.026421	-78.936284	15.127397	10.781730	7.687299	-45.000000	-44.999141	45.000000	-20.774277	2603.802731	-3890.454193	20.132405	-43.105156	366.554560	29.900940	9.754235	-19.795821	
5.5300	37.620710	2.846456	5.356572	-36.377094	795.474914	1.682476	-4.451675	36.274826	45.000000	36.247284	34.175294	-3352.480523	58.588274	16.506969	-180.000000	1444.927722	-78.119280	15.207331	10.753217	7.980388	-45.000000	-44.998462	45.000000	-21.497814	2604.271529	-3890.440032	20.021487	-43.468546	366.534768	29.686263	9.736765	-19.753517	
5.5400	37.586351	3.058610	5.845840	-40.355404	794.805385	1.452860	-4.017540	36.491704	45.000000	36.211939	32.725714	-3352.328267	58.723976	16.606456	-180.000000	1444.844732	-77.352062	15.291261	10.719292	8.323907	-45.000000	-44.997244	45.000000	-22.274743	2604.787586	-3890.445115	19.930409	-43.828016	366.497413	29.433834	9.733791	-19.706291	
5.5500	37.555592	3.214592	6.264919	-44.556551	794.160623	1.204519	-3.622630	36.686022	45.000000	36.201936	31.405413	-3352.223535	58.869070	16.689785	-180.000000	1444.779871	-76.646226	15.355380	10.685138	8.643270	-45.000000	-44.995064	45.000000	-22.994975	2605.303683	-3890.455475	19.839967	-44.209779	366.458156	29.157549	9.754687	-19.668674	
5.5600	37.527660	3.355782	6.667361	-48.967970	793.546293	0.938033	-3.231016	36.878467	45.000000	36.210923	30.105297	-3352.153105	59.014578	16.773010	-180.000000	1444.726380	-75.939732	15.412606	10.644830	8.987811	-45.000000	-44.991158	45.000000	-23.740069	2605.822653	-3890.473607	19.760415	-44.583577	366.411241	28.846574	9.800100	-19.638004	
5.5700	37.504830	3.462506	7.021414	-53.575378	792.967807	0.654373	-2.873865	37.059066	45.000000	36.244233	28.912872	-3352.124686	59.176704	16.835329	-180.000000	1444.685815	-75.210686	15.460920	10.600503	9.303676	-45.000000	-44.984160	45.000000	-24.447870	2606.326584	-3890.495169	19.666203	-44.976978	366.364250	28.515441	9.861617	-19.614944	
